<?xml version="1.0" standalone="no"?>
<!DOCTYPE svg PUBLIC "-//W3C//DTD SVG 20010904//EN"
 "http://www.w3.org/TR/2001/REC-SVG-20010904/DTD/svg10.dtd">
<svg version="1.0" xmlns="http://www.w3.org/2000/svg"
 width="200.000000pt" height="200.000000pt" viewBox="0 0 200.000000 200.000000"
 preserveAspectRatio="xMidYMid meet">

<g transform="translate(0.000000,200.000000) scale(0.100000,-0.100000)"
fill="#000000" stroke="none">
<path d="M828 1930 c-67 -11 -172 -47 -243 -83 -236 -118 -403 -317 -482 -574
-24 -80 -27 -103 -27 -253 -1 -188 11 -250 74 -387 108 -232 281 -394 521
-488 135 -53 345 -73 484 -46 96 19 216 61 209 73 -4 7 -2 8 4 4 15 -9 104 36
184 96 298 219 437 621 342 983 -25 95 -108 256 -173 339 -132 166 -330 287
-542 331 -75 16 -269 18 -351 5z m186 -46 c24 -23 20 -59 -8 -73 -34 -19 -66
0 -66 39 0 44 44 65 74 34z m-100 -25 c14 -40 2 -59 -38 -59 -34 0 -46 13 -46
49 0 47 68 55 84 10z m195 -6 c15 -52 16 -51 -29 -49 -45 1 -46 2 -23 51 22
45 39 44 52 -2z m67 11 c-3 -9 -6 -27 -6 -40 0 -23 -24 -43 -36 -31 -11 11 17
87 32 87 11 0 14 -6 10 -16z m-366 -20 c21 -55 4 -85 -27 -46 -13 16 -13 16
-11 -2 4 -29 -17 -30 -30 -1 -26 56 -8 83 31 48 19 -17 20 -17 8 5 -10 18 -9
22 4 22 8 0 20 -12 25 -26z m465 -5 c5 -16 9 -18 15 -9 4 7 12 10 18 6 13 -8
-8 -77 -23 -78 -6 0 -16 10 -22 23 -10 18 -13 20 -13 7 0 -10 -7 -18 -15 -18
-19 0 -19 11 -1 55 17 40 32 45 41 14z m-602 -40 c21 -38 22 -63 2 -55 -8 3
-15 1 -15 -4 0 -6 -6 -10 -14 -10 -8 0 -17 -6 -20 -12 -6 -16 -34 17 -43 50
-7 30 3 39 27 24 17 -10 20 -10 20 6 0 19 8 32 19 32 3 0 14 -14 24 -31z m725
-1 c7 -7 12 -21 12 -33 0 -12 -5 -26 -12 -33 -7 -7 -21 -12 -33 -12 -12 0 -26
5 -33 12 -16 16 -15 65 1 71 22 10 53 7 65 -5z m-308 -6 c0 -13 -12 -22 -22
-16 -10 6 -1 24 13 24 5 0 9 -4 9 -8z m-530 -51 c22 -21 40 -41 40 -45 0 -3
-11 -6 -25 -6 -16 0 -25 -6 -25 -15 0 -8 -7 -15 -15 -15 -9 0 -15 9 -15 23 0
12 -7 35 -15 51 -15 28 -13 46 6 46 5 0 27 -17 49 -39z m934 23 c22 -21 20
-28 -13 -64 -22 -24 -34 -30 -50 -25 -29 9 -27 50 4 80 28 29 38 31 59 9z
m-289 -34 c247 -78 422 -251 507 -501 28 -85 32 -325 7 -405 -90 -277 -254
-442 -529 -531 -66 -21 -244 -28 -326 -13 -237 44 -438 198 -540 415 -187 397
-1 861 409 1017 140 54 335 61 472 18z m-725 -29 c0 -10 7 -24 15 -31 8 -7 15
-19 15 -26 0 -21 -23 -17 -38 6 -7 11 -19 20 -27 20 -20 0 -19 20 3 36 24 18
32 17 32 -5z m1093 -25 c3 -7 0 -19 -6 -26 -10 -10 -7 -10 10 -1 29 15 44 -7
17 -26 -23 -17 -63 -28 -71 -19 -7 7 27 86 37 86 5 0 10 -6 13 -14z m-1163
-66 c25 -25 25 -32 2 -60 -25 -31 -69 -21 -78 17 -5 20 -2 31 16 45 28 23 35
23 60 -2z m1234 -2 c-15 -26 -48 -58 -61 -58 -20 0 -16 20 10 45 24 25 63 34
51 13z m66 -37 c0 -7 -25 -34 -57 -61 -9 -8 -28 -16 -40 -17 -35 -3 -29 24 15
65 20 20 36 39 34 44 -1 5 9 1 23 -8 14 -9 25 -19 25 -23z m-1366 -45 c32 -26
28 -47 -7 -39 -18 5 -20 3 -9 -8 31 -33 -1 -40 -42 -8 -33 26 -33 39 2 40 15
0 21 3 15 6 -7 2 -13 11 -13 19 0 21 21 17 54 -10z m1384 -16 c14 -24 8 -42
-12 -34 -7 3 -20 -2 -29 -10 -9 -9 -20 -16 -26 -16 -19 0 -12 29 9 40 11 6 20
17 20 25 0 22 23 18 38 -5z m-1448 -55 c17 -9 30 -22 30 -29 0 -48 -36 -60
-80 -26 -30 23 -20 38 16 21 15 -6 29 -9 32 -7 2 3 -7 11 -22 17 -26 12 -31
20 -19 32 9 9 10 9 43 -8z m1534 -55 c10 -10 -15 -38 -51 -57 -51 -27 -87 29
-40 62 22 16 72 14 91 -5z m-1534 -57 c0 -7 -4 -13 -10 -13 -5 0 -10 -7 -10
-15 0 -19 -11 -19 -56 0 -32 13 -34 16 -23 37 7 13 16 26 22 30 13 8 76 -24
77 -39z m1540 -27 c14 -18 10 -58 -8 -64 -9 -3 -13 3 -10 19 2 16 -3 25 -14
27 -11 2 -18 -3 -18 -12 0 -9 5 -16 10 -16 6 0 10 -7 10 -15 0 -8 -6 -15 -13
-15 -19 0 -37 21 -37 45 0 41 54 62 80 31z m-1630 -16 c0 -5 11 -12 25 -16 44
-11 30 -33 -20 -31 -25 1 -45 4 -45 7 1 23 15 50 26 50 8 0 14 -4 14 -10z m48
-551 c6 -49 -58 -65 -73 -18 -9 27 13 51 44 47 20 -2 27 -9 29 -29z m1590 -5
c2 -25 -1 -33 -18 -37 -43 -11 -69 18 -49 54 7 14 19 19 37 17 22 -2 28 -9 30
-34z m-1309 -374 c16 0 13 -11 -9 -40 -22 -29 -40 -19 -21 11 7 12 10 23 7 26
-8 8 -26 -7 -26 -23 0 -18 -5 -18 -29 3 -20 16 -19 17 2 44 l22 27 21 -24 c12
-13 26 -24 33 -24z m1037 23 c19 -25 18 -47 -2 -39 -8 3 -12 2 -9 -3 13 -22
-19 -22 -36 0 -23 29 -24 43 -4 35 9 -3 15 0 15 9 0 20 20 19 36 -2z m-55 -45
c24 -30 24 -42 -1 -35 -13 3 -20 0 -20 -9 0 -20 -18 -17 -30 5 -14 28 -12 44
4 38 10 -4 13 -1 9 9 -8 22 17 17 38 -8z m-901 2 c0 -5 -6 -10 -14 -10 -8 0
-17 -9 -21 -19 -10 -31 -32 -46 -50 -31 -22 18 19 70 57 70 15 0 28 -4 28 -10z
m18 -43 c18 7 14 -18 -8 -47 -16 -22 -20 -23 -25 -8 -4 9 -13 14 -21 11 -18
-7 -18 1 2 39 14 27 18 30 28 17 6 -9 17 -14 24 -12z m822 -5 c20 -16 21 -21
9 -43 -12 -22 -14 -22 -17 -5 -3 15 -6 16 -13 5 -8 -12 -11 -12 -19 1 -14 22
-12 60 4 60 8 0 24 -8 36 -18z m-61 -29 c13 -27 12 -29 -31 -54 -14 -7 -20 -4
-33 20 -20 39 -19 44 5 38 13 -3 20 0 20 9 0 24 26 15 39 -13z m-674 -5 c14
-6 25 -18 25 -27 1 -14 2 -13 11 2 17 29 28 10 16 -28 -11 -36 -27 -47 -27
-19 0 13 -3 14 -13 5 -19 -15 -28 -3 -21 28 l6 26 -21 -25 c-24 -30 -30 -25
-24 18 6 35 10 37 48 20z m129 -27 c10 -16 -25 -71 -44 -71 -10 0 -21 3 -23 8
-10 15 6 61 22 65 28 8 40 7 45 -2z m364 -33 c-4 -52 -32 -65 -48 -22 -15 38
-4 64 26 64 23 0 25 -3 22 -42z m72 33 c0 -5 -9 -11 -21 -14 -14 -4 -18 -10
-13 -18 6 -10 9 -10 12 -1 2 7 10 12 19 12 18 0 13 -20 -9 -33 -23 -15 -48 -1
-48 26 0 13 3 27 7 30 10 10 53 8 53 -2z m-379 -31 c14 -11 18 -19 11 -20 -7
0 -11 -4 -8 -9 3 -5 -1 -14 -8 -21 -33 -27 -74 28 -44 58 16 16 22 15 49 -8z
m139 2 c0 -10 7 -28 16 -40 14 -21 14 -22 -8 -23 -13 -1 -36 -3 -53 -4 -53 -3
-58 4 -38 65 4 13 6 12 14 -3 6 -9 8 -21 5 -26 -3 -5 1 -11 9 -14 14 -6 31 26
27 51 -2 6 4 12 13 12 8 0 15 -8 15 -18z m104 -18 c8 -31 -5 -49 -28 -41 -24
10 -21 67 3 67 12 0 21 -10 25 -26z"/>
<path d="M970 1850 c0 -13 5 -20 13 -17 6 2 12 10 12 17 0 7 -6 15 -12 18 -8
2 -13 -5 -13 -18z"/>
<path d="M860 1846 c0 -8 5 -18 12 -22 7 -5 8 -3 3 6 -4 7 -2 16 6 21 11 7 10
9 -3 9 -10 0 -18 -6 -18 -14z"/>
<path d="M1345 1771 c-3 -5 0 -13 6 -17 7 -4 9 -3 5 4 -3 6 2 13 11 15 16 4
16 5 1 6 -9 0 -19 -3 -23 -8z"/>
<path d="M1451 1733 c-15 -34 -10 -37 12 -8 9 13 13 26 8 29 -4 3 -13 -6 -20
-21z"/>
<path d="M633 1570 c-12 -5 -26 -18 -32 -28 -9 -18 -8 -19 12 -15 24 6 57 31
57 45 0 10 -8 9 -37 -2z"/>
<path d="M1330 1571 c0 -11 31 -35 63 -49 41 -18 42 -15 6 17 -31 29 -69 46
-69 32z"/>
<path d="M539 1549 c-6 -12 -9 -32 -6 -46 3 -15 -1 -27 -8 -30 -8 -2 -16 -12
-20 -21 -5 -12 -1 -12 16 4 13 12 36 19 60 19 46 0 55 18 13 25 -26 5 -29 9
-26 38 4 36 -12 42 -29 11z"/>
<path d="M1431 1541 c4 -32 1 -35 -31 -44 -33 -8 -34 -10 -15 -23 22 -17 51
-18 60 -3 5 7 17 2 33 -13 l27 -23 -20 23 c-11 14 -18 35 -17 51 2 18 -4 34
-18 46 l-22 20 3 -34z"/>
<path d="M935 1500 c-16 -4 -91 -20 -166 -36 l-137 -28 5 -37 5 -37 -61 -18
c-48 -13 -60 -20 -57 -33 3 -9 23 -106 46 -216 64 -312 70 -332 144 -438 71
-104 208 -192 296 -192 90 1 229 96 303 208 52 79 73 148 128 410 38 187 47
242 37 248 -7 5 -35 13 -61 20 l-49 12 6 38 c3 22 4 39 1 39 -2 0 -79 16 -171
35 -168 35 -214 40 -269 25z m365 -79 c33 -7 35 -10 34 -44 -1 -36 -1 -37 57
-53 33 -9 59 -22 59 -28 0 -6 -22 -117 -50 -246 -59 -279 -81 -333 -179 -431
-69 -69 -140 -112 -204 -124 -89 -17 -259 113 -325 248 -26 51 -46 125 -83
300 -27 128 -49 240 -49 249 0 13 16 22 56 34 55 16 55 16 52 52 l-3 37 165
35 165 36 135 -28 c74 -16 151 -32 170 -37z"/>
<path d="M920 1449 c-47 -10 -118 -26 -158 -35 l-73 -16 3 -36 c3 -37 3 -37
-52 -51 -30 -8 -56 -15 -58 -17 -5 -4 78 -404 95 -459 42 -133 132 -242 245
-295 77 -37 100 -37 166 -4 101 50 201 163 238 267 11 31 90 385 107 481 1 5
-23 17 -53 27 -53 16 -55 18 -55 53 0 24 -5 38 -15 41 -15 4 -249 53 -285 59
-11 2 -58 -4 -105 -15z m62 -197 l23 -28 27 28 c23 25 33 28 87 28 54 0 61 -2
61 -20 0 -16 7 -20 30 -20 l30 0 2 -152 2 -153 3 133 c3 108 6 132 18 132 13
0 15 -25 15 -155 l0 -155 -129 0 c-94 0 -131 3 -135 13 -3 9 -9 7 -19 -5 -12
-15 -32 -18 -141 -18 l-126 0 2 163 c3 136 5 162 18 162 8 0 15 9 15 20 0 16
7 20 33 20 24 0 32 4 32 17 0 15 10 18 64 18 59 0 67 -3 88 -28z m-188 -432
l38 -23 -12 22 c-15 28 -5 39 20 23 11 -6 36 -14 57 -18 66 -10 103 -56 103
-128 0 -46 -9 -50 -34 -14 -14 21 -37 37 -71 48 -82 28 -98 36 -142 75 -47 40
-62 79 -20 53 12 -8 39 -25 61 -38z m506 31 c0 -12 -76 -74 -115 -94 -16 -8
-49 -20 -72 -26 -24 -7 -52 -24 -66 -41 -28 -33 -37 -30 -37 15 0 54 38 98 95
112 28 7 58 17 68 23 20 12 24 -9 5 -28 -21 -21 5 -13 57 18 54 31 65 35 65
21z"/>
<path d="M1108 913 c7 -3 16 -2 19 1 4 3 -2 6 -13 5 -11 0 -14 -3 -6 -6z"/>
<path d="M1158 913 c7 -3 16 -2 19 1 4 3 -2 6 -13 5 -11 0 -14 -3 -6 -6z"/>
<path d="M1198 913 c7 -3 16 -2 19 1 4 3 -2 6 -13 5 -11 0 -14 -3 -6 -6z"/>
<path d="M462 1474 c-8 -16 -9 -31 -3 -43 7 -13 4 -25 -15 -47 -13 -16 -21
-21 -18 -12 3 9 1 25 -4 35 -9 16 -12 15 -23 -9 -9 -22 -9 -31 1 -43 10 -12
10 -21 -1 -47 -13 -31 -13 -32 -19 -8 -7 29 -26 37 -32 13 -6 -21 26 -86 36
-76 4 4 16 8 28 10 21 3 38 19 38 36 0 11 -25 8 -38 -5 -9 -9 -12 -9 -12 1 0
29 21 51 49 51 32 0 61 25 39 33 -7 2 -21 0 -32 -5 -18 -10 -18 -9 0 21 14 23
23 29 40 25 12 -3 32 0 45 6 20 11 20 13 6 22 -10 5 -21 7 -26 4 -20 -13 -37
5 -33 34 5 37 -11 39 -26 4z"/>
<path d="M1508 1468 c-2 -28 -8 -34 -31 -36 -40 -5 -28 -26 18 -32 23 -3 43
-13 51 -26 14 -20 13 -20 -18 -16 l-33 5 20 -22 c13 -15 27 -21 43 -18 18 3
26 -1 32 -19 5 -13 12 -24 15 -24 2 0 0 11 -5 25 -6 17 -6 33 1 49 8 17 8 29
-1 46 -11 21 -13 22 -22 6 -5 -9 -7 -25 -3 -34 4 -11 -4 -7 -21 9 -22 22 -24
30 -15 47 8 15 8 28 -1 46 -15 35 -26 33 -30 -6z"/>
<path d="M1634 1318 c-6 -7 -14 -21 -18 -32 -4 -12 -12 -16 -24 -11 -30 11
-37 10 -37 -5 0 -8 14 -19 32 -24 17 -6 36 -19 42 -30 11 -20 11 -20 6 1 -4
12 1 33 10 46 18 28 8 80 -11 55z"/>
<path d="M310 1211 c0 -16 7 -34 15 -41 8 -7 15 -24 16 -39 l1 -26 7 25 c4 15
15 26 29 28 23 4 48 37 34 46 -4 2 -14 1 -22 -5 -25 -15 -40 -10 -50 16 -13
34 -30 32 -30 -4z"/>
<path d="M1655 1204 c-12 -19 -20 -23 -28 -15 -6 6 -19 11 -29 11 -16 0 -17
-3 -8 -20 6 -11 21 -22 35 -26 14 -3 26 -15 28 -27 4 -19 4 -18 6 4 0 15 8 32
16 39 16 13 21 60 6 60 -5 0 -16 -12 -26 -26z"/>
<path d="M290 1115 c0 -14 9 -30 20 -37 14 -9 20 -24 20 -48 0 -34 0 -34 -16
-12 -8 12 -19 22 -25 22 -18 0 -9 -39 14 -57 13 -10 26 -25 30 -33 5 -13 6
-13 6 0 1 8 13 24 27 35 16 13 25 28 23 40 -4 19 -5 19 -27 -3 l-22 -22 0 30
c0 23 6 33 24 39 19 8 36 29 36 47 0 10 -29 2 -40 -12 -12 -13 -16 -12 -37 10
-30 32 -33 32 -33 1z"/>
<path d="M1688 1120 c-17 -22 -21 -23 -50 -12 -17 6 -33 10 -36 8 -8 -9 19
-45 38 -51 15 -5 20 -15 20 -38 -1 -27 -2 -29 -11 -14 -12 21 -39 23 -39 3 0
-8 11 -23 24 -33 13 -11 26 -28 29 -39 4 -17 5 -17 6 3 0 12 10 24 21 28 19 6
38 50 27 61 -3 3 -14 -5 -26 -17 l-21 -23 0 29 c0 16 9 39 21 51 12 13 19 32
17 46 l-3 23 -17 -25z"/>
<path d="M367 930 c-7 -11 -17 -17 -20 -13 -4 3 -7 1 -7 -5 0 -7 -9 -3 -20 8
-20 20 -40 26 -40 12 0 -16 32 -52 46 -52 8 0 19 -10 24 -22 9 -22 9 -22 9 3
1 15 7 29 15 32 16 6 28 45 16 52 -5 3 -15 -4 -23 -15z"/>
<path d="M1608 944 c-7 -11 7 -50 21 -59 6 -3 11 -16 12 -28 l0 -22 9 23 c5
12 18 22 28 22 10 0 24 11 30 25 10 22 9 25 -7 25 -10 0 -22 -8 -25 -17 -6
-15 -8 -15 -16 -3 -6 8 -10 11 -10 6 0 -4 -8 2 -18 15 -11 12 -21 18 -24 13z"/>
<path d="M383 840 c-3 -11 -9 -17 -14 -14 -5 3 -9 0 -9 -7 0 -8 -6 -6 -18 4
-10 10 -24 17 -32 17 -21 0 13 -44 39 -50 14 -3 29 -19 37 -40 11 -24 11 -31
3 -22 -15 14 -49 16 -49 3 0 -13 24 -30 50 -34 21 -3 50 -31 50 -48 0 -3 -11
-4 -25 -1 -14 2 -25 0 -25 -6 0 -16 39 -35 60 -29 11 3 25 -3 33 -12 27 -32
27 -38 -4 -33 -16 2 -29 0 -29 -4 0 -17 40 -34 66 -28 17 4 32 0 47 -12 l22
-19 -20 23 c-11 14 -19 35 -17 50 3 36 -14 63 -27 43 -5 -8 -7 -21 -3 -30 4
-13 1 -12 -16 3 -18 15 -21 26 -16 52 3 18 1 40 -4 50 -9 16 -11 14 -19 -16
l-9 -35 -16 30 c-14 25 -14 32 -2 51 14 20 10 54 -6 54 -4 0 -12 -10 -17 -22
l-11 -23 -10 25 c-7 19 -6 29 4 41 17 19 19 59 3 59 -6 0 -13 -9 -16 -20z"/>
<path d="M1590 838 c0 -12 7 -29 16 -39 12 -13 13 -22 5 -38 -6 -11 -11 -23
-11 -28 1 -4 8 4 16 20 8 15 21 27 29 27 20 0 57 38 49 51 -4 6 -15 4 -30 -6
-14 -9 -24 -11 -24 -5 0 6 -4 9 -9 6 -5 -3 -11 3 -14 14 -7 27 -27 25 -27 -2z"/>
<path d="M1557 761 c-2 -11 2 -29 9 -40 13 -18 13 -24 -3 -47 -17 -27 -18 -27
-23 -5 -8 33 -25 21 -26 -19 0 -19 -4 -43 -8 -52 -9 -21 -31 -25 -23 -5 3 8 1
20 -4 28 -14 21 -31 -8 -26 -46 3 -20 -2 -35 -17 -48 -21 -19 -21 -19 5 -4 15
9 36 13 47 10 23 -6 62 12 62 29 0 7 -12 8 -32 4 l-32 -6 24 25 c14 15 35 25
50 25 15 0 35 10 46 21 l19 22 -32 -5 c-38 -5 -38 -5 -18 26 10 15 23 22 34
19 18 -5 51 20 51 38 0 13 -24 11 -37 -2 -13 -13 -33 -4 -33 15 0 8 -6 19 -14
25 -11 9 -15 7 -19 -8z"/>
<path d="M588 558 c-4 -8 -2 -21 2 -29 11 -16 -5 -29 -37 -29 -13 0 -23 -5
-23 -10 0 -17 43 -28 66 -18 16 8 29 6 50 -7 l29 -17 -28 22 c-18 15 -26 28
-22 40 7 23 -29 70 -37 48z"/>
<path d="M1387 549 c-9 -12 -14 -32 -11 -44 4 -15 -2 -25 -20 -35 -14 -7 -24
-15 -22 -18 3 -2 15 3 27 11 16 11 27 13 43 6 15 -7 31 -7 51 1 27 10 28 12
12 22 -10 5 -24 8 -30 5 -18 -7 -38 18 -25 31 7 7 7 16 0 27 -8 16 -11 15 -25
-6z"/>
<path d="M790 405 c0 -9 5 -15 11 -13 6 2 11 8 11 13 0 5 -5 11 -11 13 -6 2
-11 -4 -11 -13z"/>
<path d="M1197 414 c-8 -8 1 -24 14 -24 5 0 9 7 9 15 0 15 -12 20 -23 9z"/>
<path d="M887 393 c-4 -3 -7 -12 -7 -20 0 -14 21 -14 32 2 13 17 -10 34 -25
18z"/>
<path d="M982 388 c-13 -17 -1 -43 20 -44 22 -2 35 35 17 47 -19 12 -25 11
-37 -3z"/>
<path d="M1097 393 c-7 -11 4 -27 21 -31 8 -1 12 4 10 14 -3 19 -23 30 -31 17z"/>
<path d="M365 1590 c-8 -13 3 -30 18 -30 8 0 7 3 -2 9 -7 5 -10 14 -7 20 4 6
5 11 2 11 -3 0 -8 -4 -11 -10z"/>
<path d="M1750 1385 c-16 -9 -19 -14 -9 -15 8 0 24 7 35 15 24 18 7 19 -26 0z"/>
<path d="M792 210 c0 -14 2 -19 5 -12 2 6 2 18 0 25 -3 6 -5 1 -5 -13z"/>
<path d="M855 190 c3 -5 10 -10 16 -10 5 0 9 5 9 10 0 6 -7 10 -16 10 -8 0
-12 -4 -9 -10z"/>
</g>
</svg>
