<?xml version="1.0" standalone="no"?>
<!DOCTYPE svg PUBLIC "-//W3C//DTD SVG 20010904//EN"
 "http://www.w3.org/TR/2001/REC-SVG-20010904/DTD/svg10.dtd">
<svg version="1.0" xmlns="http://www.w3.org/2000/svg"
 width="674.000000pt" height="674.000000pt" viewBox="0 0 674.000000 674.000000"
 preserveAspectRatio="xMidYMid meet">

<g transform="translate(0.000000,674.000000) scale(0.100000,-0.100000)"
fill="#000000" stroke="none">
<path d="M3225 6719 c-22 -4 -74 -7 -115 -8 -93 -1 -371 -38 -384 -51 -6 -6
-24 -10 -40 -10 -44 0 -246 -50 -246 -61 0 -5 -10 -9 -23 -9 -41 0 -268 -81
-339 -120 -10 -6 -23 -10 -30 -10 -23 0 -207 -93 -202 -102 3 -5 2 -7 -3 -6
-13 3 -83 -25 -83 -34 0 -4 -4 -8 -9 -8 -11 0 -133 -69 -141 -80 -3 -4 -24
-17 -47 -30 -24 -13 -43 -27 -43 -32 0 -4 -7 -8 -15 -8 -8 0 -15 -4 -15 -9 0
-5 -13 -14 -28 -20 -16 -7 -43 -25 -61 -42 -18 -16 -35 -29 -39 -29 -4 0 -20
-12 -36 -26 -19 -19 -24 -29 -16 -34 9 -5 9 -9 1 -14 -6 -4 -11 -2 -11 3 0 17
-28 13 -42 -6 -7 -10 -40 -40 -73 -68 -69 -57 -261 -249 -320 -320 -22 -27
-52 -62 -67 -79 -15 -17 -43 -51 -63 -76 -19 -25 -40 -51 -46 -58 -6 -7 -16
-23 -22 -35 -7 -12 -23 -38 -37 -57 -14 -19 -30 -42 -35 -51 -6 -9 -28 -42
-50 -75 -53 -79 -84 -136 -156 -284 -145 -298 -196 -441 -274 -770 -21 -86
-57 -311 -51 -317 2 -3 1 -15 -4 -28 -5 -12 -11 -94 -15 -181 -3 -87 -8 -174
-11 -192 -8 -52 21 -378 47 -522 22 -124 49 -259 59 -295 6 -22 15 -56 20 -75
35 -148 104 -327 216 -559 57 -118 104 -217 104 -222 0 -4 4 -9 9 -11 8 -3 31
-37 106 -153 138 -216 301 -408 512 -605 85 -79 162 -146 197 -169 12 -8 23
-17 26 -20 13 -15 126 -95 225 -160 61 -39 115 -75 120 -79 6 -4 42 -24 80
-43 39 -20 105 -55 148 -78 43 -23 101 -51 130 -62 168 -67 212 -84 307 -115
93 -31 156 -49 295 -83 68 -17 265 -50 375 -63 118 -15 548 -17 680 -5 280 27
612 100 800 177 25 10 95 37 155 60 138 53 333 149 407 201 14 11 29 19 32 19
11 0 168 100 218 138 26 20 69 53 95 72 140 102 365 311 499 465 83 95 227
288 274 365 18 30 35 57 39 60 17 14 83 135 166 305 99 203 132 285 189 470 7
22 15 47 19 55 8 20 63 249 76 320 5 30 15 98 21 150 7 52 17 112 23 133 12
43 16 497 5 592 -31 261 -45 352 -73 465 -9 36 -23 94 -31 130 -7 36 -19 67
-24 68 -6 2 -10 14 -10 26 0 28 -20 98 -58 206 -28 80 -45 120 -113 267 -16
34 -34 72 -39 85 -6 13 -19 37 -29 53 -11 17 -33 57 -50 91 -16 33 -37 67 -46
74 -8 7 -15 16 -15 21 0 19 -174 272 -238 346 -15 17 -43 51 -62 74 -39 48
-255 267 -339 345 -110 99 -431 334 -459 334 -5 0 -15 7 -22 15 -7 8 -24 21
-39 28 -14 8 -92 49 -174 91 -81 42 -152 74 -157 71 -6 -3 -10 -3 -10 2 0 4
-21 16 -48 27 -26 10 -60 24 -77 31 -71 29 -145 55 -210 76 -38 12 -79 26 -90
31 -56 24 -412 89 -595 108 -136 15 -418 20 -475 9z m98 -26 c-7 -2 -21 -2
-30 0 -10 3 -4 5 12 5 17 0 24 -2 18 -5z m69 -154 c140 -70 139 -246 -2 -305
-54 -23 -190 8 -190 43 0 7 -4 13 -9 13 -14 0 -31 85 -24 122 14 75 45 108
125 133 56 18 51 18 100 -6z m344 -17 c14 -10 30 -53 55 -147 47 -182 47 -175
-6 -175 -23 0 -39 7 -52 24 -25 33 -85 41 -109 15 -21 -23 -82 -26 -91 -4 -5
14 16 60 116 253 17 34 27 42 49 42 15 0 32 -4 38 -8z m-717 -18 c41 -16 76
-56 68 -78 -3 -7 4 -18 14 -25 16 -9 19 -19 13 -49 -18 -106 -71 -155 -169
-155 -96 0 -165 67 -165 161 0 36 28 112 41 112 4 0 14 6 21 13 36 36 116 46
177 21z m985 -20 c21 -8 20 -41 -4 -155 -11 -52 -20 -104 -20 -116 0 -25 -27
-44 -56 -38 -10 2 -21 4 -24 4 -28 6 -31 19 -16 87 8 38 20 98 26 134 7 36 14
71 16 78 4 13 51 16 78 6z m-1844 -24 c0 -5 -8 -10 -17 -10 -15 0 -16 2 -3 10
19 12 20 12 20 0z m517 -12 c6 -7 16 -38 23 -68 7 -30 23 -86 35 -123 27 -78
25 -92 -13 -105 -37 -13 -59 -2 -114 53 -27 26 -48 43 -48 38 0 -5 7 -33 16
-62 18 -62 12 -73 -42 -75 -35 -1 -38 1 -46 34 -5 19 -13 44 -17 55 -10 22
-25 77 -40 145 -12 53 -1 71 45 72 20 1 41 -9 64 -31 19 -18 46 -42 58 -54
l24 -22 -6 23 c-3 12 -8 30 -10 40 -17 72 -17 72 6 82 33 13 54 12 65 -2z
m1653 -48 c18 0 47 -41 48 -68 0 -15 6 -40 12 -57 l12 -30 14 34 c8 18 14 39
14 45 0 7 5 17 10 22 15 15 78 -6 83 -28 3 -9 -14 -74 -38 -145 -39 -117 -45
-128 -68 -131 -47 -6 -62 12 -81 95 -17 70 -20 75 -29 53 -23 -58 -38 -89 -45
-93 -4 -2 -22 0 -39 5 -42 11 -42 21 3 155 42 122 60 157 81 149 8 -4 19 -6
23 -6z m-2107 -224 c68 -141 71 -155 35 -173 -34 -17 -55 -8 -74 31 l-14 31 4
-47 c4 -53 -6 -68 -46 -68 -20 0 -36 11 -59 40 -18 22 -34 38 -36 36 -2 -1 8
-27 22 -57 14 -30 25 -58 25 -64 0 -5 -23 -11 -50 -13 -35 -2 -50 1 -50 10 0
7 -25 63 -55 123 -30 61 -55 117 -55 126 0 17 59 49 91 49 11 0 42 -23 70 -52
42 -45 50 -49 45 -28 -17 86 -18 126 -1 140 28 23 59 38 75 37 9 -1 40 -53 73
-121z m2561 41 c46 -32 52 -39 65 -79 14 -43 6 -121 -16 -156 -46 -74 -181
-84 -251 -19 -50 46 -64 119 -37 184 40 95 156 129 239 70z m303 -13 c-3 -3
-12 -4 -19 -1 -8 3 -5 6 6 6 11 1 17 -2 13 -5z m-1373 -20 c18 -46 -7 -81 -49
-70 -30 8 -47 43 -33 69 12 22 73 24 82 1z m1401 -64 c11 -11 30 -28 42 -38
31 -24 34 -56 6 -60 -26 -4 -30 -17 -8 -26 9 -3 18 1 21 9 12 30 64 10 64 -24
0 -21 -40 -61 -61 -61 -11 0 -37 -28 -66 -72 -27 -41 -61 -79 -77 -86 -41 -20
-108 -7 -146 28 -26 24 -30 35 -30 78 0 41 6 58 35 98 19 27 42 66 51 87 24
55 42 61 83 28 l34 -28 -28 -49 c-75 -132 -88 -164 -67 -164 18 0 101 111 102
136 0 6 11 17 25 24 14 7 25 16 25 19 0 3 -18 19 -40 35 -37 28 -51 61 -33 79
13 14 48 7 68 -13z m-3393 -13 c4 -6 2 -19 -3 -29 -10 -19 -5 -38 11 -38 5 0
22 -12 37 -26 37 -35 109 -84 122 -84 6 0 11 -5 11 -10 0 -6 11 -15 25 -20 38
-14 33 -51 -9 -74 -19 -10 -39 -15 -46 -11 -30 18 -90 -20 -90 -58 0 -27 -64
-67 -80 -51 -10 10 -60 241 -63 291 -2 22 -17 33 -17 13 0 -12 -37 -14 -43 -2
-6 8 21 92 35 109 12 14 99 6 110 -10z m3493 13 c3 -5 1 -10 -4 -10 -6 0 -11
5 -11 10 0 6 2 10 4 10 3 0 8 -4 11 -10z m-1405 -95 c184 -34 200 -38 320 -73
175 -52 324 -108 405 -153 17 -9 64 -33 105 -55 41 -21 86 -45 100 -55 14 -9
52 -34 85 -55 367 -235 687 -575 885 -942 42 -78 97 -185 108 -212 6 -14 17
-41 25 -60 33 -77 77 -198 93 -255 9 -33 22 -78 29 -100 13 -38 38 -172 67
-355 8 -55 13 -170 12 -325 -1 -207 -5 -266 -29 -430 -15 -104 -31 -194 -35
-200 -10 -13 -34 -96 -32 -110 1 -6 -8 -35 -19 -65 -12 -30 -22 -63 -22 -72
-1 -10 -4 -18 -7 -18 -3 0 -12 -17 -19 -37 -7 -21 -19 -51 -26 -68 -73 -170
-113 -257 -137 -296 -15 -25 -28 -51 -28 -57 0 -6 -4 -12 -8 -14 -4 -1 -28
-34 -53 -73 -25 -38 -54 -83 -65 -99 -10 -16 -23 -36 -29 -45 -5 -9 -13 -18
-16 -21 -3 -3 -35 -41 -70 -85 -36 -44 -103 -118 -147 -165 -45 -46 -82 -88
-82 -92 0 -5 -5 -8 -12 -8 -7 0 -35 -22 -63 -49 -59 -57 -192 -159 -290 -222
-152 -99 -185 -119 -193 -119 -4 0 -30 -14 -58 -31 -56 -36 -268 -124 -394
-163 -236 -73 -384 -103 -610 -125 -113 -11 -465 -6 -515 7 -22 5 -67 13 -101
16 -33 2 -111 16 -173 30 -63 14 -123 26 -135 26 -12 0 -26 4 -32 9 -10 9
-136 51 -154 51 -5 0 -29 9 -53 20 -23 10 -67 29 -97 40 -73 29 -230 107 -250
125 -9 8 -22 15 -29 15 -7 0 -32 14 -56 30 -24 17 -46 30 -48 30 -33 0 -429
318 -475 382 -7 10 -20 18 -28 18 -8 0 -14 5 -14 11 0 5 -33 47 -72 92 -40 45
-82 95 -93 111 -11 15 -25 33 -31 40 -29 31 -214 307 -214 320 0 2 -26 59 -59
127 -111 234 -157 369 -207 599 -23 107 -30 154 -53 365 -12 109 -5 383 14
535 9 69 16 132 16 140 1 8 4 29 9 45 4 17 13 57 20 90 7 33 23 94 35 135 13
41 26 84 28 95 11 39 38 109 72 182 19 40 35 78 35 83 0 11 76 159 90 177 6 7
10 16 10 21 0 5 14 31 32 58 78 122 164 251 179 269 24 28 141 167 159 187 8
9 20 23 26 30 12 15 196 185 234 217 201 167 521 354 740 432 36 12 67 25 70
28 9 11 325 92 445 115 141 27 281 35 525 31 186 -4 248 -9 360 -30z m-1480
-46 c0 -5 -4 -9 -10 -9 -5 0 -10 7 -10 16 0 8 5 12 10 9 6 -3 10 -10 10 -16z
m-450 -9 c0 -5 -4 -10 -10 -10 -5 0 -10 5 -10 10 0 6 5 10 10 10 6 0 10 -4 10
-10z m-356 -75 c18 -14 19 -19 7 -51 -12 -33 -11 -38 13 -73 14 -20 42 -52 61
-71 19 -19 35 -40 35 -47 0 -14 -50 -63 -64 -63 -5 0 -25 18 -44 40 -27 33
-37 38 -48 29 -9 -7 -14 -8 -14 -1 0 6 5 12 12 14 7 3 1 17 -17 40 -24 31 -33
35 -59 31 -43 -7 -75 27 -57 60 17 31 121 107 146 107 6 -1 19 -7 29 -15z
m3886 -88 c8 -7 23 -22 33 -34 19 -21 18 -23 -17 -89 -20 -37 -34 -70 -32 -72
3 -2 25 10 51 28 25 17 61 34 79 37 29 4 36 1 56 -27 12 -17 20 -33 18 -35
-15 -16 -264 -145 -279 -145 -9 0 -29 14 -43 30 l-25 30 24 49 c14 27 25 53
25 58 0 5 14 38 31 74 17 35 35 74 40 87 10 25 17 27 39 9z m-340 -77 c0 -5
-7 -10 -16 -10 -8 0 -12 5 -9 10 3 6 10 10 16 10 5 0 9 -4 9 -10z m-3851 -169
c11 -11 30 -21 43 -23 16 -2 31 -17 47 -48 31 -60 24 -128 -17 -179 -38 -48
-66 -61 -131 -61 -75 0 -124 29 -150 91 -25 57 -25 56 -5 116 25 74 83 121
152 122 29 1 48 -5 61 -18z m4472 -23 c34 -39 32 -42 -105 -163 -93 -82 -103
-86 -132 -52 -13 16 -24 32 -24 37 0 5 19 27 43 49 169 161 184 170 218 129z
m221 -118 c16 -22 16 -30 6 -65 -13 -43 -67 -105 -92 -105 -9 0 -25 13 -37 30
-12 16 -26 27 -31 24 -4 -3 4 -21 18 -40 l27 -34 -29 -25 c-37 -32 -48 -31
-72 2 -11 16 -24 25 -28 20 -4 -4 2 -21 15 -37 17 -23 19 -34 12 -49 -11 -19
-89 -56 -99 -46 -3 3 0 5 6 5 17 0 14 31 -4 55 -16 20 -16 20 -9 -3 8 -29 -18
-62 -50 -62 -16 0 -27 10 -36 31 -12 29 -11 33 10 50 12 10 29 15 36 12 20 -7
19 6 -1 28 -16 17 -12 59 5 59 5 0 48 33 97 72 142 117 211 138 256 78z
m-4974 -127 c20 -16 39 -31 42 -34 3 -3 23 -18 45 -32 22 -14 55 -38 74 -54
l34 -29 -17 -32 -17 -32 -82 0 c-80 -1 -81 -1 -59 -18 75 -55 77 -58 64 -86
-20 -44 -49 -47 -101 -12 -25 17 -50 37 -54 44 -4 6 -14 12 -21 12 -7 0 -21 9
-31 20 -10 11 -23 20 -30 20 -6 0 -21 13 -33 29 l-21 29 20 26 c19 24 26 26
102 26 l82 0 -25 20 c-14 11 -33 20 -43 20 -10 0 -15 5 -12 10 3 6 1 10 -5 10
-24 0 -22 32 6 61 15 16 32 29 37 29 4 0 25 -12 45 -27z m5027 -65 c-14 -9
-14 -13 8 -41 13 -18 34 -49 46 -70 22 -36 23 -39 6 -57 -20 -23 -47 -25 -74
-8 -19 12 -49 -4 -111 -57 -14 -12 -38 -27 -53 -33 -25 -11 -31 -9 -52 13 -14
13 -25 30 -25 37 0 23 9 30 83 76 16 9 38 25 49 35 12 9 25 17 30 17 5 0 7 14
3 31 -10 44 16 69 67 67 30 -1 35 -4 23 -10z m222 -190 c-3 -7 -5 -2 -5 12 0
14 2 19 5 13 2 -7 2 -19 0 -25z m-617 18 c0 -15 -14 -35 -21 -30 -15 9 -10 34
6 34 8 0 15 -2 15 -4z m-4826 -67 c119 -59 142 -77 162 -125 16 -37 8 -71 -27
-126 -23 -35 -27 -37 -80 -38 -44 0 -64 6 -100 28 -24 15 -58 34 -76 41 -52
21 -64 40 -48 79 19 44 40 42 140 -13 73 -40 84 -43 95 -29 18 21 1 37 -91 83
-81 41 -94 62 -65 107 9 13 19 24 22 24 4 0 34 -14 68 -31z m4896 -114 c0 -8
-2 -15 -4 -15 -2 0 -6 7 -10 15 -3 8 -1 15 4 15 6 0 10 -7 10 -15z m690 -5 c0
-5 -8 -10 -17 -10 -15 0 -16 2 -3 10 19 12 20 12 20 0z m-135 -51 c5 -23 11
-29 23 -24 38 16 49 13 83 -18 30 -26 35 -36 28 -54 -13 -36 -51 -29 -92 16
-33 36 -37 38 -56 25 -11 -8 -52 -30 -90 -49 -70 -35 -94 -61 -64 -72 9 -4 49
11 97 36 45 23 88 41 97 41 27 0 45 -33 40 -76 -2 -17 -185 -104 -219 -104
-23 0 -57 16 -95 46 -23 19 -27 29 -27 70 0 72 23 99 127 150 109 53 139 56
148 13z m-5572 -125 c38 -19 66 -52 67 -78 0 -14 5 -17 23 -11 12 4 37 9 55
12 30 5 32 3 32 -24 0 -33 -32 -73 -59 -73 -28 0 -31 -10 -10 -31 18 -18 18
-21 4 -50 -20 -38 -34 -43 -71 -24 -16 8 -33 15 -37 15 -9 0 -73 27 -149 63
-54 25 -54 23 -5 126 22 47 38 67 61 77 40 17 51 17 89 -2z m5744 -26 c-3 -8
-6 -5 -6 6 -1 11 2 17 5 13 3 -3 4 -12 1 -19z m-77 -163 c51 -27 79 -67 86
-126 7 -60 -7 -100 -48 -139 -30 -27 -35 -26 -53 18 -15 33 -15 39 -1 64 21
35 20 54 -4 78 -28 28 -87 23 -111 -10 -24 -32 -15 -66 23 -86 47 -24 69 -114
28 -114 -28 0 -79 26 -113 58 -75 71 -52 212 43 259 48 24 100 23 150 -2z
m-5817 -72 c5 -3 7 -17 5 -31 -3 -26 2 -29 89 -57 51 -17 98 -36 104 -42 7 -7
7 -22 2 -44 -12 -46 -41 -48 -143 -13 l-79 28 -25 -27 c-21 -23 -27 -25 -50
-14 -31 14 -42 41 -28 71 21 46 32 78 32 93 0 29 30 53 59 46 14 -3 30 -8 34
-10z m207 -73 c0 -5 -4 -10 -10 -10 -5 0 -10 5 -10 10 0 6 5 10 10 10 6 0 10
-4 10 -10z m5667 -1802 c-3 -8 -6 -5 -6 6 -1 11 2 17 5 13 3 -3 4 -12 1 -19z
m-5718 -37 c59 -58 64 -139 12 -194 -55 -60 -106 -70 -171 -37 -56 28 -75 72
-71 159 1 15 19 42 47 69 45 42 48 44 99 39 41 -4 58 -11 84 -36z m5678 13
c71 -41 95 -112 62 -182 -26 -52 -63 -73 -133 -75 -48 -1 -56 2 -89 35 -59 60
-59 156 0 208 51 45 100 49 160 14z m-965 -1345 c18 -23 48 -58 66 -79 37 -44
40 -60 12 -85 -20 -18 -21 -18 -53 13 -22 21 -36 29 -46 23 -18 -12 -6 -41 19
-48 25 -7 25 -14 0 -45 -22 -29 -70 -43 -70 -22 0 7 -8 21 -18 31 -83 82 -112
151 -73 172 14 8 23 5 41 -14 13 -14 29 -25 36 -25 19 0 27 33 9 42 -19 12
-19 42 1 62 24 25 40 19 76 -25z m-3842 22 c8 -6 14 -25 14 -45 0 -31 2 -33
19 -24 13 7 28 6 48 -3 42 -17 36 -50 -11 -64 -64 -19 -74 -29 -76 -80 -3 -62
-20 -81 -53 -55 -18 13 -25 28 -25 53 0 31 -2 33 -18 23 -10 -6 -21 -19 -24
-29 -3 -9 -9 -15 -14 -12 -5 3 -7 12 -4 20 4 8 -1 18 -10 21 -22 8 -20 36 4
67 11 14 20 27 20 30 0 9 98 107 107 107 4 0 15 -4 23 -9z m200 -182 c0 -11
-3 -19 -7 -19 -5 0 -19 -17 -33 -38 -75 -112 -100 -130 -135 -92 -15 17 -16
22 -4 39 8 10 33 46 57 79 23 34 50 65 59 71 22 12 63 -14 63 -40z m3416 43
c20 -14 124 -162 124 -177 0 -27 -46 -40 -86 -26 -42 15 -54 8 -30 -17 9 -11
14 -25 11 -33 -8 -21 -42 -40 -59 -33 -16 6 -83 99 -111 153 -17 33 -17 35 1
48 23 17 55 17 90 -2 34 -17 43 -12 21 13 -22 24 -22 58 1 71 21 12 24 13 38
3z m-356 -22 c0 -5 -4 -10 -9 -10 -6 0 -13 5 -16 10 -3 6 1 10 9 10 9 0 16 -4
16 -10z m-2860 -26 c55 -7 63 -14 55 -47 -7 -24 -11 -26 -54 -24 -43 2 -46 0
-49 -24 -2 -17 -12 -31 -28 -38 -14 -6 -22 -16 -19 -22 8 -12 -34 -61 -46 -54
-4 3 -5 -3 -2 -13 2 -10 -4 -29 -14 -41 l-19 -23 -52 38 c-29 22 -52 44 -52
50 0 16 93 154 126 187 25 25 34 28 69 23 22 -4 60 -9 85 -12z m13 -115 c31
-17 37 -28 37 -79 l1 -45 25 31 c19 24 30 30 50 26 46 -8 44 -16 -31 -164 -28
-53 -38 -62 -65 -53 -27 9 -42 40 -42 89 0 35 -2 38 -11 22 -29 -45 -42 -56
-64 -50 -35 10 -36 37 -5 90 15 27 38 70 51 97 25 52 24 51 54 36z m2974 -25
c21 -14 52 -37 69 -52 16 -15 39 -32 50 -38 44 -25 21 -79 -31 -71 -42 6 -53
0 -70 -39 -9 -22 -23 -36 -40 -40 -32 -8 -44 6 -46 51 0 17 -2 39 -5 50 -2 11
-7 47 -10 79 -6 51 -4 61 12 73 24 18 27 17 71 -13z m78 -4 c3 -5 1 -10 -4
-10 -6 0 -11 5 -11 10 0 6 2 10 4 10 3 0 8 -4 11 -10z m-247 -87 c28 -42 72
-141 72 -164 0 -12 -10 -23 -27 -30 -22 -8 -29 -7 -37 8 -9 16 -11 14 -16 -12
-6 -37 -42 -46 -72 -19 -19 18 -19 18 -13 -9 6 -22 3 -33 -13 -48 -21 -19 -21
-19 -45 14 -14 17 -28 43 -32 56 -4 14 -18 45 -31 69 -31 59 -30 65 11 88 l35
18 33 -32 c18 -18 36 -32 40 -32 4 0 4 20 1 44 -6 41 -4 45 22 60 40 21 50 20
72 -11z m-2449 -59 c66 -29 85 -56 54 -79 -10 -8 -25 -15 -34 -15 -10 0 -28
-26 -48 -71 -30 -67 -33 -71 -59 -64 -29 7 -44 24 -37 40 53 124 54 129 38
147 -13 15 -14 23 -5 43 14 31 17 31 91 -1z m91 -9 c0 -8 -4 -15 -8 -15 -5 0
-9 7 -9 15 0 8 4 15 9 15 4 0 8 -7 8 -15z m-640 -5 c0 -13 -11 -13 -30 0 -12
8 -11 10 8 10 12 0 22 -4 22 -10z m713 -62 c2 -7 -1 -20 -6 -29 -6 -9 -7 -24
-4 -33 8 -20 36 -21 39 -1 0 8 1 21 2 28 1 6 6 15 11 19 16 10 63 -3 69 -19 3
-8 -8 -58 -26 -111 -18 -53 -31 -100 -30 -103 0 -4 -13 -3 -30 0 -24 5 -34 14
-39 36 -5 17 -4 34 2 41 7 9 5 16 -10 23 -22 12 -25 9 -35 -31 -5 -22 -12 -28
-34 -28 -39 0 -51 15 -41 53 26 104 42 155 55 175 14 21 16 21 43 7 16 -8 31
-20 34 -27z m2567 13 c0 -58 -63 -71 -68 -14 -2 23 1 32 15 36 44 11 53 8 53
-22z m-3293 -33 c-3 -8 -6 -5 -6 6 -1 11 2 17 5 13 3 -3 4 -12 1 -19z m1053
-6 c0 -11 11 -24 25 -30 22 -10 23 -14 14 -41 -6 -16 -17 -35 -25 -42 -8 -6
-14 -20 -14 -29 0 -31 -38 -108 -59 -119 -11 -6 -38 -11 -60 -11 -46 0 -76 23
-87 65 -7 28 24 165 41 178 5 4 22 5 38 3 22 -5 27 -2 27 14 0 20 16 27 68 29
25 1 32 -3 32 -17z m1276 4 c3 -8 0 -24 -6 -36 -10 -18 -9 -21 2 -18 7 3 14
15 16 27 3 18 9 22 30 19 26 -3 27 -5 27 -73 1 -38 4 -88 9 -111 7 -35 5 -44
-18 -71 -31 -37 -67 -48 -112 -33 -40 13 -58 47 -73 134 -15 81 -14 83 14 90
16 4 25 13 25 25 0 21 44 61 67 61 7 0 16 -6 19 -14z m311 -19 c43 -43 5 -73
-65 -53 -26 8 -36 6 -48 -6 -24 -23 -10 -75 21 -80 25 -5 45 7 45 27 0 13 42
35 66 35 42 0 14 -88 -38 -120 -53 -32 -107 -27 -151 15 -32 30 -37 41 -37 78
0 54 23 102 58 122 39 22 119 12 149 -18z m-884 -49 c12 -7 24 -14 26 -16 3
-1 5 -18 6 -36 2 -31 10 -55 51 -140 7 -15 16 -43 20 -61 5 -28 2 -34 -15 -40
-24 -7 -61 2 -61 16 0 5 -13 9 -30 9 -16 0 -30 -5 -30 -10 0 -14 -46 -31 -65
-24 -21 8 -19 36 9 107 43 112 48 134 35 155 -26 41 8 65 54 40z m-461 -59
c36 -43 33 -73 -6 -77 -21 -3 -36 3 -53 22 -29 31 -33 32 -61 6 -24 -23 -28
-50 -10 -68 15 -15 54 -16 63 -2 8 13 55 13 75 0 13 -8 13 -13 -2 -37 -43 -73
-153 -70 -207 6 -25 35 -27 81 -4 128 21 45 63 64 127 59 41 -3 54 -9 78 -37z
m853 15 c25 -16 26 -51 3 -65 -8 -5 -5 -13 12 -27 17 -14 24 -30 24 -55 0 -63
-50 -95 -120 -75 -50 13 -74 70 -35 83 18 5 18 7 -5 30 -25 25 -31 68 -15 94
14 21 63 40 90 35 12 -3 34 -12 46 -20z m-593 -26 c1 -7 2 -44 2 -82 1 -66 2
-70 26 -76 17 -4 26 -14 28 -31 4 -37 -15 -47 -78 -40 l-55 6 -3 85 c-2 47 0
100 3 118 5 29 9 32 40 32 20 0 36 -5 37 -12z m-1012 -34 c0 -8 -4 -12 -10 -9
-5 3 -10 10 -10 16 0 5 5 9 10 9 6 0 10 -7 10 -16z m1650 -14 c0 -5 -4 -10
-10 -10 -5 0 -10 5 -10 10 0 6 5 10 10 10 6 0 10 -4 10 -10z"/>
<path d="M3297 6448 c-9 -7 -21 -27 -26 -45 -20 -71 71 -120 111 -59 12 18 9
71 -4 89 -18 22 -60 30 -81 15z"/>
<path d="M2906 6409 c-30 -24 -34 -58 -10 -94 13 -20 25 -25 55 -25 22 0 39 5
39 11 0 6 -8 9 -19 6 -29 -7 -51 11 -51 42 0 30 15 41 55 41 13 0 27 5 30 10
3 6 -3 10 -14 10 -12 0 -21 5 -21 10 0 17 -36 11 -64 -11z"/>
<path d="M4652 6130 c-14 -13 -22 -32 -22 -53 1 -32 1 -32 18 -11 9 12 22 30
28 40 11 18 13 18 42 2 37 -22 42 -22 42 -4 0 19 -39 46 -65 46 -12 0 -31 -9
-43 -20z"/>
<path d="M4650 6025 c7 -8 24 -15 38 -15 25 0 25 1 6 15 -10 8 -27 15 -38 15
-15 0 -16 -3 -6 -15z"/>
<path d="M1750 5901 c0 -5 5 -13 10 -16 6 -3 10 -2 10 4 0 5 -4 13 -10 16 -5
3 -10 2 -10 -4z"/>
<path d="M2150 5403 c-74 -12 -143 -56 -193 -122 -36 -49 -143 -139 -152 -129
-3 3 8 31 25 63 16 31 30 72 30 90 0 37 -18 95 -30 95 -12 0 -97 -94 -114
-128 -21 -40 -20 -112 0 -156 l17 -34 -92 -93 c-50 -51 -94 -90 -97 -86 -4 3
1 24 10 47 29 72 12 190 -27 190 -14 0 -69 -85 -87 -135 -15 -39 -4 -107 21
-138 10 -14 19 -32 19 -40 0 -16 -110 -177 -135 -197 -12 -10 -14 0 -9 66 6
72 4 82 -17 113 -36 51 -46 49 -75 -13 -36 -80 -34 -184 5 -216 3 -3 14 -15
24 -27 18 -21 17 -23 -40 -135 l-58 -113 -3 45 c-1 25 -5 60 -8 78 -5 35 -58
102 -79 102 -14 0 -45 -101 -45 -149 0 -43 32 -102 69 -126 36 -23 38 -36 11
-101 -10 -27 -24 -67 -30 -89 -11 -43 -26 -72 -34 -65 -2 3 -7 25 -11 50 -4
24 -13 56 -21 71 -15 31 -60 69 -80 69 -17 0 -27 -57 -22 -128 5 -67 39 -122
88 -142 35 -15 36 -19 14 -149 -21 -133 -23 -135 -49 -63 -12 35 -31 72 -41
84 -20 21 -66 48 -84 48 -19 0 -12 -126 10 -173 20 -43 73 -87 103 -87 9 0 20
-8 25 -17 10 -22 3 -253 -7 -253 -4 0 -14 19 -21 41 -16 48 -61 96 -108 116
-43 18 -54 10 -46 -35 19 -117 72 -192 134 -192 45 0 55 -19 69 -135 12 -107
9 -136 -13 -101 -40 68 -95 106 -151 106 -31 0 -31 -12 -3 -87 22 -61 65 -110
102 -118 11 -2 39 -8 60 -12 l39 -8 29 -105 c15 -58 28 -111 28 -119 0 -7 -22
7 -49 32 -27 26 -61 49 -75 52 -14 3 -36 7 -49 10 -46 9 -51 -8 -18 -72 47
-95 84 -118 195 -125 l39 -3 45 -103 c24 -57 42 -105 40 -108 -3 -2 -28 11
-56 29 -58 39 -108 52 -147 37 l-27 -10 23 -38 c59 -99 106 -127 198 -119 l66
6 63 -98 c34 -54 62 -101 62 -105 0 -12 -20 -6 -56 19 -28 19 -50 25 -90 25
-101 0 -106 -14 -31 -87 36 -37 64 -55 93 -61 44 -10 101 -5 110 9 14 23 47 2
122 -80 45 -49 82 -94 82 -100 0 -14 1 -14 -48 9 -22 11 -61 20 -85 20 -46 0
-107 -17 -107 -29 0 -14 66 -69 107 -90 55 -27 124 -27 173 0 l37 21 79 -64
c43 -35 90 -71 103 -80 35 -25 18 -34 -34 -20 -25 7 -58 12 -73 12 -37 -1
-112 -36 -112 -53 0 -14 60 -53 115 -74 65 -25 150 -11 184 31 8 9 19 16 26
16 7 0 55 -25 106 -55 52 -30 100 -55 107 -55 29 0 3 26 -74 73 -108 66 -117
77 -104 111 16 43 12 103 -10 146 -23 45 -77 110 -92 110 -13 0 -38 -64 -38
-98 0 -16 11 -50 25 -76 14 -26 25 -49 25 -52 0 -2 -15 3 -32 12 -46 23 -168
133 -168 151 0 7 7 28 16 45 24 46 19 118 -11 178 -31 61 -51 72 -76 41 -26
-32 -33 -85 -19 -137 7 -24 10 -47 8 -50 -10 -9 -158 153 -158 172 0 6 8 22
19 35 28 37 44 96 37 140 -9 55 -36 119 -50 119 -39 0 -80 -96 -70 -162 4 -22
3 -38 -3 -38 -15 0 -123 168 -123 191 0 6 15 25 34 43 45 45 58 102 43 180 -7
33 -17 61 -23 63 -18 6 -65 -38 -80 -73 -8 -19 -14 -52 -14 -74 0 -22 -5 -40
-11 -40 -12 0 -77 139 -86 182 -5 25 0 34 35 64 51 44 76 106 70 174 -3 28 -8
54 -12 57 -12 12 -70 -26 -93 -60 -13 -18 -23 -46 -23 -63 0 -34 -14 -61 -24
-46 -13 22 -57 187 -54 206 2 11 22 31 47 46 58 34 91 94 91 167 0 48 -2 53
-23 53 -41 0 -95 -56 -113 -117 -9 -30 -19 -51 -24 -46 -9 10 -34 202 -29 227
3 12 19 24 46 33 56 19 97 63 117 125 23 73 21 88 -12 88 -39 0 -98 -44 -122
-91 -12 -22 -25 -37 -30 -34 -11 7 -12 117 -2 185 7 42 9 45 42 51 73 12 116
46 149 119 29 65 28 80 -10 80 -47 0 -98 -29 -126 -72 -47 -70 -53 -48 -25 97
l17 90 54 8 c30 4 69 15 85 25 37 21 111 125 102 141 -9 14 -76 14 -112 1 -15
-6 -44 -30 -65 -53 -22 -23 -39 -37 -39 -31 0 20 40 147 61 192 l19 42 61 0
c33 0 73 7 88 15 34 17 113 104 108 119 -2 5 -19 14 -38 19 -45 12 -100 -5
-144 -44 -49 -44 -46 -19 12 98 l47 94 72 -6 c68 -7 77 -5 121 20 53 30 95 73
90 89 -2 6 -21 17 -43 24 -45 16 -98 4 -145 -31 -16 -11 -32 -18 -35 -14 -7 6
82 139 122 182 23 25 25 25 60 10 73 -30 164 -13 227 44 34 31 34 37 -3 56
-38 20 -99 19 -150 -1 -23 -9 -44 -14 -47 -10 -7 7 157 176 171 176 6 0 34
-12 61 -26 61 -31 115 -28 200 11 60 27 64 38 23 68 -37 28 -95 35 -147 20
-24 -7 -47 -11 -49 -8 -16 15 106 105 142 105 45 0 141 57 194 114 28 32 50
62 46 67 -5 9 -28 10 -74 2z"/>
<path d="M4560 5387 c0 -21 104 -123 146 -145 22 -10 61 -25 89 -31 50 -12
139 -71 150 -99 4 -11 0 -13 -22 -6 -54 17 -139 11 -169 -12 -43 -32 -40 -42
22 -71 86 -39 132 -41 199 -8 55 26 57 27 78 9 34 -28 137 -137 148 -156 10
-19 -1 -17 -51 9 -39 20 -110 16 -150 -8 l-34 -21 29 -25 c75 -61 150 -77 238
-51 l40 12 37 -42 c45 -53 105 -150 97 -158 -3 -4 -18 3 -32 14 -42 33 -88 45
-132 33 -71 -20 -73 -27 -23 -73 71 -64 129 -81 207 -59 25 7 35 6 46 -7 18
-20 97 -185 97 -202 0 -7 -18 2 -40 20 -47 37 -93 52 -138 44 -45 -9 -48 -19
-18 -64 42 -64 92 -91 172 -93 l69 -2 27 -77 c15 -42 30 -94 34 -115 l6 -38
-38 36 c-52 49 -74 59 -129 59 -46 0 -47 -1 -41 -26 10 -40 56 -102 91 -124
17 -11 57 -22 88 -26 31 -4 58 -12 60 -18 11 -28 29 -164 25 -195 l-3 -34 -25
38 c-35 53 -70 76 -124 82 -48 6 -55 -1 -37 -35 5 -9 17 -36 26 -59 20 -49 75
-91 128 -100 20 -3 41 -11 47 -18 7 -8 10 -58 8 -126 l-3 -114 -26 50 c-29 55
-92 99 -132 93 -24 -3 -25 -12 -5 -87 14 -53 72 -116 116 -126 50 -11 55 -23
42 -117 -19 -145 -27 -160 -49 -88 -6 22 -22 51 -34 64 -26 29 -94 59 -102 46
-11 -18 7 -129 26 -160 11 -17 42 -45 70 -62 48 -30 50 -34 44 -65 -13 -73
-51 -188 -60 -186 -5 1 -13 21 -17 45 -8 47 -30 81 -70 111 -43 32 -58 17 -58
-55 0 -76 28 -140 76 -171 19 -12 34 -28 34 -35 0 -16 -59 -160 -79 -192 -16
-24 -16 -23 -23 33 -9 68 -30 108 -69 131 -32 19 -34 16 -49 -49 -17 -74 -4
-127 41 -179 22 -24 39 -47 39 -51 0 -13 -122 -195 -131 -195 -4 0 -5 22 -2
49 3 27 3 61 -1 74 -6 26 -52 87 -65 87 -15 0 -42 -73 -48 -130 -5 -53 -3 -63
26 -113 l32 -55 -49 -59 c-48 -57 -111 -117 -118 -111 -1 2 4 24 12 49 17 52
8 110 -24 150 l-19 22 -26 -35 c-30 -39 -57 -108 -57 -145 0 -13 10 -47 21
-74 l22 -50 -24 -25 c-39 -42 -169 -138 -176 -130 -4 4 1 20 11 37 28 48 37
89 26 128 -18 65 -25 69 -60 36 -72 -68 -98 -145 -75 -223 13 -42 13 -43 -18
-66 -18 -14 -61 -42 -96 -63 -64 -39 -86 -63 -58 -63 8 0 55 25 105 55 50 30
94 55 96 55 3 0 27 -14 55 -31 45 -28 57 -31 104 -26 54 5 177 59 177 76 0 15
-56 51 -90 57 -17 4 -56 1 -86 -6 -54 -13 -84 -7 -53 11 9 4 52 38 95 75 44
36 84 68 91 71 7 3 25 -4 40 -15 66 -46 156 -30 238 41 l50 44 -32 17 c-44 22
-120 21 -167 -5 -21 -11 -43 -18 -48 -17 -11 4 137 181 159 191 6 3 34 -2 62
-10 72 -23 120 -7 191 64 52 52 54 55 35 69 -34 25 -112 18 -167 -17 -28 -16
-53 -28 -56 -25 -4 5 36 73 60 100 5 6 23 35 39 64 l30 53 54 -6 c76 -10 109
1 159 51 42 43 75 99 64 109 -3 3 -27 6 -55 6 -52 2 -84 -12 -135 -60 -15 -13
-30 -22 -33 -20 -2 3 17 55 43 115 l49 109 59 5 c95 9 140 42 178 134 22 54
21 56 -26 56 -50 0 -91 -23 -143 -77 -32 -35 -35 -36 -30 -13 11 54 52 208 59
218 3 6 28 14 54 18 44 6 83 24 107 48 16 16 52 96 60 134 6 29 5 32 -19 32
-58 0 -109 -35 -153 -103 -13 -22 -26 -37 -28 -35 -3 2 3 60 13 128 l17 123
50 14 c28 8 58 22 69 31 31 29 58 93 64 155 5 59 5 59 -19 52 -68 -21 -108
-58 -131 -121 -11 -31 -26 -45 -29 -26 -1 4 -3 58 -5 120 l-3 113 37 16 c78
32 111 82 119 182 6 78 -2 89 -46 67 -42 -22 -80 -71 -92 -122 -14 -54 -26
-56 -34 -6 -4 20 -13 72 -21 116 -8 43 -14 80 -14 81 0 2 21 15 46 30 65 38
89 94 81 188 -3 39 -10 74 -15 79 -6 6 -25 -4 -50 -26 -38 -35 -47 -54 -67
-151 -6 -26 -8 -27 -16 -12 -14 25 -69 197 -69 216 0 9 13 25 29 35 16 11 36
32 45 47 29 49 14 213 -21 226 -32 13 -83 -83 -83 -157 0 -27 -4 -50 -9 -50
-10 0 -111 195 -111 214 0 7 14 25 30 41 39 37 52 85 40 141 -12 55 -51 134
-64 134 -6 0 -22 -16 -35 -35 -25 -38 -32 -93 -18 -157 4 -21 4 -38 -1 -38 -5
0 -42 46 -82 101 -50 70 -70 105 -64 114 43 59 48 71 48 119 -1 54 -24 109
-68 161 l-26 30 -19 -25 c-31 -39 -35 -96 -12 -162 11 -32 16 -58 12 -58 -12
0 -176 169 -179 185 -2 7 4 27 12 44 34 65 10 143 -69 225 -45 47 -48 49 -61
31 -8 -11 -14 -43 -14 -75 0 -46 6 -66 35 -114 19 -32 29 -56 21 -53 -31 12
-137 101 -150 125 -17 32 -71 85 -106 102 -31 16 -118 40 -147 40 -13 0 -23
-6 -23 -13z"/>
<path d="M3365 5173 c-11 -2 -58 -12 -105 -23 -47 -10 -110 -23 -140 -29 -104
-20 -205 -41 -370 -76 -91 -19 -190 -40 -220 -46 -30 -6 -82 -18 -115 -26 -33
-9 -82 -19 -110 -23 -64 -10 -218 -49 -227 -58 -4 -4 -1 -36 7 -72 22 -110 27
-177 14 -185 -6 -4 -25 -11 -43 -15 -17 -5 -103 -29 -191 -54 -88 -25 -165
-46 -172 -46 -20 0 -24 -17 -13 -62 11 -43 78 -357 106 -498 16 -79 30 -144
64 -300 11 -52 25 -120 31 -150 6 -30 14 -68 19 -85 5 -16 19 -82 30 -145 12
-63 27 -144 35 -180 8 -36 20 -96 26 -135 6 -38 22 -108 36 -155 14 -47 32
-109 40 -139 8 -30 20 -63 27 -75 8 -11 16 -33 20 -47 3 -15 24 -65 46 -113
22 -47 40 -89 40 -92 0 -4 6 -15 14 -23 7 -9 28 -43 46 -76 56 -103 181 -267
271 -355 99 -97 188 -175 233 -206 98 -66 142 -94 149 -94 5 0 23 -11 40 -24
27 -19 103 -58 192 -97 63 -28 166 -62 224 -74 62 -13 71 -12 151 10 130 36
286 109 440 204 410 254 713 688 845 1210 13 53 40 177 59 276 32 166 79 394
142 685 14 63 29 140 35 170 8 43 94 447 116 546 4 19 -7 24 -114 53 -65 18
-136 39 -158 46 -22 7 -63 18 -92 25 -29 6 -57 17 -62 24 -7 8 -4 50 9 131 11
66 20 121 20 123 0 7 -62 24 -177 48 -147 30 -270 56 -398 83 -671 141 -723
151 -762 150 -21 -1 -47 -3 -58 -6z m127 -122 c51 -11 149 -31 218 -46 69 -14
179 -37 245 -51 232 -48 401 -85 460 -99 33 -8 86 -19 117 -25 84 -17 87 -21
71 -126 -7 -49 -15 -101 -18 -115 -7 -31 7 -45 60 -57 139 -32 358 -98 362
-110 3 -7 -9 -79 -26 -160 -18 -81 -48 -221 -67 -312 -33 -158 -50 -239 -163
-795 -69 -339 -101 -453 -174 -625 -187 -441 -527 -782 -953 -955 -104 -42
-258 -79 -279 -66 -5 3 -28 11 -50 17 -22 7 -65 22 -95 34 -30 12 -66 24 -80
27 -14 3 -29 11 -35 17 -5 6 -29 20 -53 30 -23 11 -47 25 -53 32 -6 7 -28 22
-50 33 -22 12 -46 26 -52 31 -70 58 -100 80 -107 80 -16 0 -227 214 -279 283
-54 70 -181 261 -181 270 0 3 -20 48 -44 99 -62 132 -94 223 -136 388 -35 138
-42 171 -70 335 -7 39 -19 95 -27 125 -8 30 -21 89 -29 130 -8 41 -18 93 -23
115 -27 128 -74 356 -81 395 -9 45 -15 75 -45 205 -15 68 -24 108 -43 209 -6
27 -8 55 -5 62 3 7 30 20 61 29 32 9 66 20 77 25 11 5 56 16 100 25 44 10 89
22 100 28 11 6 27 11 35 12 44 4 62 17 55 38 -12 39 -28 141 -29 185 -1 42 0
44 38 57 22 8 58 17 80 21 23 3 100 19 171 36 72 16 157 33 190 39 33 5 83 16
110 23 28 8 100 24 160 36 61 11 139 28 175 36 36 8 101 21 144 29 44 9 82 18
85 20 8 9 37 6 133 -14z m-865 -87 c-3 -3 -12 -4 -19 -1 -8 3 -5 6 6 6 11 1
17 -2 13 -5z m-460 -2426 c-3 -8 -6 -5 -6 6 -1 11 2 17 5 13 3 -3 4 -12 1 -19z"/>
<path d="M3345 4998 c-49 -10 -99 -23 -110 -27 -11 -5 -49 -14 -85 -20 -36 -6
-108 -20 -160 -31 -52 -11 -122 -24 -155 -30 -33 -5 -69 -11 -80 -14 -42 -11
-153 -35 -215 -46 -36 -7 -76 -16 -90 -21 -14 -5 -36 -11 -50 -14 -107 -19
-140 -30 -135 -45 8 -26 27 -163 29 -204 l1 -39 -110 -29 c-60 -16 -145 -40
-188 -54 -43 -13 -90 -24 -103 -24 -23 0 -24 -3 -19 -37 4 -21 15 -72 25 -113
11 -41 26 -113 35 -160 23 -122 47 -220 54 -220 3 0 7 -25 8 -55 0 -30 8 -83
17 -117 9 -35 20 -90 25 -123 5 -33 18 -94 29 -135 12 -41 26 -102 31 -135 6
-33 17 -91 25 -130 8 -38 26 -126 39 -195 43 -212 96 -368 189 -550 78 -151
89 -170 105 -170 7 0 13 -9 13 -20 0 -32 67 -116 192 -241 63 -63 120 -118
128 -124 8 -5 49 -35 90 -65 96 -71 98 -72 205 -124 158 -77 187 -88 216 -82
20 4 31 1 37 -10 5 -9 30 -20 56 -25 58 -11 164 20 309 91 410 201 717 553
875 1000 55 155 67 206 171 715 90 441 123 598 161 775 11 52 27 128 36 168 9
41 13 76 10 79 -3 3 -42 15 -88 28 -277 73 -330 89 -335 101 -3 8 2 56 11 108
25 146 26 142 -41 155 -32 6 -85 18 -118 25 -69 16 -374 81 -615 131 -91 19
-203 43 -250 53 -83 18 -87 18 -175 0z m-133 -675 c24 -9 57 -28 73 -41 34
-28 99 -117 109 -150 11 -32 21 -27 51 26 38 66 91 119 150 150 47 25 59 27
221 30 116 3 179 0 193 -7 l21 -12 -2 -572 -3 -572 -190 -6 c-120 -4 -205 -11
-230 -20 -25 -8 -65 -38 -105 -78 -77 -77 -103 -94 -120 -77 -9 8 -11 7 -9 -4
1 -8 0 -22 -4 -30 -3 -8 -7 -21 -9 -28 -3 -11 -89 -13 -463 -12 -253 0 -463 4
-467 8 -10 10 -14 1114 -5 1130 10 16 99 16 115 0 9 -9 12 4 12 59 0 96 6 101
119 102 51 1 93 -3 96 -9 10 -16 26 0 24 23 0 12 -1 41 0 65 l1 42 190 0 c154
0 198 -3 232 -17z m1043 -698 l0 -580 -315 -5 -315 -5 -79 -32 c-44 -18 -82
-31 -84 -28 -18 18 78 125 138 153 27 12 81 17 240 22 l205 5 2 515 c2 283 5
521 8 528 3 9 30 12 102 10 l98 -3 0 -580z m139 419 c10 -25 7 -1102 -3 -1108
-17 -11 -904 -7 -914 3 -14 14 82 56 158 70 34 6 185 11 352 11 l293 0 0 504
c0 277 3 511 6 520 4 12 20 16 54 16 34 0 50 -4 54 -16z m-1964 -1221 c14 -9
27 -20 30 -23 24 -32 325 -194 342 -184 5 3 -7 21 -25 41 -34 35 -63 105 -52
123 11 18 43 10 117 -29 55 -29 94 -41 158 -50 93 -13 157 -33 210 -67 126
-79 204 -276 176 -444 -10 -63 -26 -110 -36 -110 -5 0 -23 30 -41 67 -39 83
-117 162 -179 185 -25 9 -79 26 -120 37 -140 40 -185 55 -200 67 -8 6 -35 21
-60 33 -65 30 -128 67 -169 98 -159 121 -259 239 -220 264 21 13 42 11 69 -8z
m2030 -13 c0 -44 -117 -161 -254 -253 -104 -71 -268 -146 -390 -179 -60 -16
-128 -38 -150 -50 -62 -31 -118 -90 -151 -162 -16 -36 -35 -65 -42 -66 -20 0
-33 61 -33 159 0 144 32 231 117 318 63 65 120 91 239 109 102 15 181 42 223
75 33 26 71 25 71 -2 0 -30 -17 -59 -69 -113 l-46 -48 35 7 c59 12 216 92 322
165 97 67 128 76 128 40z m-1233 -136 c-3 -3 -12 -4 -19 -1 -8 3 -5 6 6 6 11
1 17 -2 13 -5z"/>
<path d="M3320 3056 c0 -2 8 -10 18 -17 15 -13 16 -12 3 4 -13 16 -21 21 -21
13z"/>
<path d="M2550 3040 c0 -5 5 -10 11 -10 5 0 7 5 4 10 -3 6 -8 10 -11 10 -2 0
-4 -4 -4 -10z"/>
<path d="M3148 3023 c7 -3 16 -2 19 1 4 3 -2 6 -13 5 -11 0 -14 -3 -6 -6z"/>
<path d="M2670 1250 c0 -6 -10 -15 -23 -21 -21 -10 -23 -14 -13 -45 9 -28 16
-34 38 -34 14 0 33 -2 41 -6 10 -4 16 5 20 33 6 33 3 41 -21 60 -30 25 -42 28
-42 13z"/>
<path d="M4120 1250 c0 -6 -12 -15 -27 -21 -20 -7 -23 -13 -15 -21 7 -7 12
-24 12 -38 0 -23 4 -25 40 -25 29 0 40 4 40 15 0 9 7 26 16 38 14 21 14 23 -9
31 -14 6 -28 15 -32 20 -8 14 -25 14 -25 1z"/>
<path d="M3006 1186 c-9 -14 -22 -26 -29 -26 -6 0 -18 -4 -26 -9 -11 -7 -10
-13 4 -35 10 -15 15 -37 12 -52 -4 -23 -2 -25 17 -19 28 10 57 10 79 1 14 -7
17 -3 17 27 0 19 7 40 15 47 21 17 19 28 -7 35 -13 4 -32 18 -44 32 l-21 24
-17 -25z"/>
<path d="M3772 1185 c-6 -13 -23 -27 -37 -31 -28 -7 -32 -25 -10 -44 9 -7 14
-24 13 -39 -3 -21 1 -25 17 -23 35 6 59 6 78 -2 14 -7 17 -3 17 27 0 19 7 40
15 47 22 18 19 27 -14 38 -16 6 -34 20 -41 31 -14 27 -24 26 -38 -4z"/>
<path d="M3383 1183 c-11 -32 -35 -53 -69 -59 -41 -7 -43 -22 -9 -54 23 -21
25 -29 19 -69 -6 -41 -5 -44 12 -36 63 26 70 27 99 14 46 -20 50 -17 47 31 -3
38 1 49 22 69 14 14 26 28 26 32 0 4 -18 10 -41 14 -32 6 -45 14 -61 41 -22
38 -36 43 -45 17z"/>
<path d="M1116 5465 c-29 -22 -27 -78 5 -104 32 -27 74 -27 93 1 24 33 19 42
-9 20 -51 -40 -101 14 -56 62 11 12 21 25 21 29 0 12 -34 7 -54 -8z"/>
<path d="M5836 5367 c3 -10 9 -15 12 -12 3 3 0 11 -7 18 -10 9 -11 8 -5 -6z"/>
<path d="M559 4594 c-11 -14 -10 -18 6 -30 24 -18 31 -18 39 1 14 37 -20 59
-45 29z"/>
<path d="M1725 830 c3 -5 8 -10 11 -10 2 0 4 5 4 10 0 6 -5 10 -11 10 -5 0 -7
-4 -4 -10z"/>
<path d="M2695 591 c-22 -4 -31 -13 -36 -36 -4 -17 -12 -48 -18 -70 -11 -43
-9 -50 13 -42 8 3 17 26 21 54 7 55 22 78 56 92 27 11 9 12 -36 2z"/>
<path d="M3988 569 c-14 -8 -14 -13 -2 -46 7 -21 13 -48 14 -60 0 -33 11 -53
27 -53 12 0 14 7 8 33 -4 17 -13 55 -19 84 -9 43 -14 50 -28 42z"/>
</g>
</svg>
